<mxfile host="app.diagrams.net" modified="2023-11-16T20:24:14.384Z" agent="Mozilla/5.0 (Windows NT 10.0; Win64; x64) AppleWebKit/537.36 (KHTML, like Gecko) Chrome/116.0.0.0 Safari/537.36" version="22.1.2" etag="4ehV1xEtTNLAqgkbyp0E" type="device">
  <diagram id="6mt8GwxgbA2jFJ6OA1nm" name="Trang-1">
    <mxGraphModel dx="1006" dy="559" grid="1" gridSize="10" guides="1" tooltips="1" connect="1" arrows="1" fold="1" page="1" pageScale="1" pageWidth="827" pageHeight="1169" math="0" shadow="0">
      <root>
        <mxCell id="0" />
        <mxCell id="1" parent="0" />
        <mxCell id="H7OXvi4-zBRhOT6-c9Pm-1" value="" style="edgeStyle=orthogonalEdgeStyle;rounded=0;orthogonalLoop=1;jettySize=auto;html=1;" edge="1" parent="1" target="H7OXvi4-zBRhOT6-c9Pm-3">
          <mxGeometry relative="1" as="geometry">
            <mxPoint x="320" y="110" as="sourcePoint" />
          </mxGeometry>
        </mxCell>
        <mxCell id="H7OXvi4-zBRhOT6-c9Pm-2" value="" style="edgeStyle=orthogonalEdgeStyle;rounded=0;orthogonalLoop=1;jettySize=auto;html=1;" edge="1" parent="1" source="H7OXvi4-zBRhOT6-c9Pm-3" target="H7OXvi4-zBRhOT6-c9Pm-5">
          <mxGeometry relative="1" as="geometry" />
        </mxCell>
        <mxCell id="H7OXvi4-zBRhOT6-c9Pm-3" value="n" style="rounded=0;whiteSpace=wrap;html=1;" vertex="1" parent="1">
          <mxGeometry x="260" y="140" width="120" height="60" as="geometry" />
        </mxCell>
        <mxCell id="H7OXvi4-zBRhOT6-c9Pm-4" value="" style="edgeStyle=orthogonalEdgeStyle;rounded=0;orthogonalLoop=1;jettySize=auto;html=1;" edge="1" parent="1" source="H7OXvi4-zBRhOT6-c9Pm-5" target="H7OXvi4-zBRhOT6-c9Pm-7">
          <mxGeometry relative="1" as="geometry" />
        </mxCell>
        <mxCell id="H7OXvi4-zBRhOT6-c9Pm-5" value="Nhập n" style="shape=parallelogram;perimeter=parallelogramPerimeter;whiteSpace=wrap;html=1;fixedSize=1;rounded=0;" vertex="1" parent="1">
          <mxGeometry x="260" y="230" width="120" height="60" as="geometry" />
        </mxCell>
        <mxCell id="H7OXvi4-zBRhOT6-c9Pm-6" value="" style="edgeStyle=orthogonalEdgeStyle;rounded=0;orthogonalLoop=1;jettySize=auto;html=1;" edge="1" parent="1" source="H7OXvi4-zBRhOT6-c9Pm-7" target="H7OXvi4-zBRhOT6-c9Pm-9">
          <mxGeometry relative="1" as="geometry" />
        </mxCell>
        <mxCell id="H7OXvi4-zBRhOT6-c9Pm-7" value="numbers[n]" style="whiteSpace=wrap;html=1;rounded=0;" vertex="1" parent="1">
          <mxGeometry x="260" y="340" width="120" height="60" as="geometry" />
        </mxCell>
        <mxCell id="H7OXvi4-zBRhOT6-c9Pm-8" value="" style="edgeStyle=orthogonalEdgeStyle;rounded=0;orthogonalLoop=1;jettySize=auto;html=1;" edge="1" parent="1" source="H7OXvi4-zBRhOT6-c9Pm-9" target="H7OXvi4-zBRhOT6-c9Pm-11">
          <mxGeometry relative="1" as="geometry" />
        </mxCell>
        <mxCell id="H7OXvi4-zBRhOT6-c9Pm-9" value="i = 0" style="whiteSpace=wrap;html=1;rounded=0;" vertex="1" parent="1">
          <mxGeometry x="260" y="460" width="120" height="60" as="geometry" />
        </mxCell>
        <mxCell id="H7OXvi4-zBRhOT6-c9Pm-10" value="true" style="edgeStyle=orthogonalEdgeStyle;rounded=0;orthogonalLoop=1;jettySize=auto;html=1;" edge="1" parent="1" source="H7OXvi4-zBRhOT6-c9Pm-11" target="H7OXvi4-zBRhOT6-c9Pm-13">
          <mxGeometry relative="1" as="geometry" />
        </mxCell>
        <mxCell id="H7OXvi4-zBRhOT6-c9Pm-18" value="false" style="edgeStyle=orthogonalEdgeStyle;rounded=0;orthogonalLoop=1;jettySize=auto;html=1;" edge="1" parent="1" source="H7OXvi4-zBRhOT6-c9Pm-11" target="H7OXvi4-zBRhOT6-c9Pm-17">
          <mxGeometry relative="1" as="geometry" />
        </mxCell>
        <mxCell id="H7OXvi4-zBRhOT6-c9Pm-11" value="i &amp;lt; n" style="rhombus;whiteSpace=wrap;html=1;rounded=0;" vertex="1" parent="1">
          <mxGeometry x="280" y="580" width="80" height="80" as="geometry" />
        </mxCell>
        <mxCell id="H7OXvi4-zBRhOT6-c9Pm-12" value="" style="edgeStyle=orthogonalEdgeStyle;rounded=0;orthogonalLoop=1;jettySize=auto;html=1;" edge="1" parent="1" source="H7OXvi4-zBRhOT6-c9Pm-13" target="H7OXvi4-zBRhOT6-c9Pm-15">
          <mxGeometry relative="1" as="geometry" />
        </mxCell>
        <mxCell id="H7OXvi4-zBRhOT6-c9Pm-13" value="Nhập numbers[i]" style="shape=parallelogram;perimeter=parallelogramPerimeter;whiteSpace=wrap;html=1;fixedSize=1;rounded=0;" vertex="1" parent="1">
          <mxGeometry x="400" y="590" width="120" height="60" as="geometry" />
        </mxCell>
        <mxCell id="H7OXvi4-zBRhOT6-c9Pm-14" style="edgeStyle=orthogonalEdgeStyle;rounded=0;orthogonalLoop=1;jettySize=auto;html=1;movable=1;resizable=1;rotatable=1;deletable=1;editable=1;locked=0;connectable=1;entryX=0.5;entryY=0;entryDx=0;entryDy=0;" edge="1" parent="1" source="H7OXvi4-zBRhOT6-c9Pm-15" target="H7OXvi4-zBRhOT6-c9Pm-11">
          <mxGeometry relative="1" as="geometry">
            <mxPoint x="640" y="540" as="targetPoint" />
            <Array as="points">
              <mxPoint x="640" y="540" />
              <mxPoint x="320" y="540" />
            </Array>
          </mxGeometry>
        </mxCell>
        <mxCell id="H7OXvi4-zBRhOT6-c9Pm-15" value="i + 1" style="whiteSpace=wrap;html=1;rounded=0;" vertex="1" parent="1">
          <mxGeometry x="580" y="590" width="120" height="60" as="geometry" />
        </mxCell>
        <mxCell id="H7OXvi4-zBRhOT6-c9Pm-16" value="Start" style="ellipse;whiteSpace=wrap;html=1;" vertex="1" parent="1">
          <mxGeometry x="260" y="30" width="120" height="80" as="geometry" />
        </mxCell>
        <mxCell id="H7OXvi4-zBRhOT6-c9Pm-20" value="" style="edgeStyle=orthogonalEdgeStyle;rounded=0;orthogonalLoop=1;jettySize=auto;html=1;" edge="1" parent="1" source="H7OXvi4-zBRhOT6-c9Pm-17" target="H7OXvi4-zBRhOT6-c9Pm-19">
          <mxGeometry relative="1" as="geometry" />
        </mxCell>
        <mxCell id="H7OXvi4-zBRhOT6-c9Pm-17" value="i = 0" style="whiteSpace=wrap;html=1;rounded=0;" vertex="1" parent="1">
          <mxGeometry x="260" y="750" width="120" height="60" as="geometry" />
        </mxCell>
        <mxCell id="H7OXvi4-zBRhOT6-c9Pm-22" value="True" style="edgeStyle=orthogonalEdgeStyle;rounded=0;orthogonalLoop=1;jettySize=auto;html=1;" edge="1" parent="1" source="H7OXvi4-zBRhOT6-c9Pm-19" target="H7OXvi4-zBRhOT6-c9Pm-21">
          <mxGeometry relative="1" as="geometry" />
        </mxCell>
        <mxCell id="H7OXvi4-zBRhOT6-c9Pm-39" value="false" style="edgeStyle=orthogonalEdgeStyle;rounded=0;orthogonalLoop=1;jettySize=auto;html=1;" edge="1" parent="1" source="H7OXvi4-zBRhOT6-c9Pm-19" target="H7OXvi4-zBRhOT6-c9Pm-38">
          <mxGeometry relative="1" as="geometry" />
        </mxCell>
        <mxCell id="H7OXvi4-zBRhOT6-c9Pm-19" value="i &amp;lt; n" style="rhombus;whiteSpace=wrap;html=1;rounded=0;" vertex="1" parent="1">
          <mxGeometry x="280" y="850" width="80" height="80" as="geometry" />
        </mxCell>
        <mxCell id="H7OXvi4-zBRhOT6-c9Pm-24" value="" style="edgeStyle=orthogonalEdgeStyle;rounded=0;orthogonalLoop=1;jettySize=auto;html=1;" edge="1" parent="1" source="H7OXvi4-zBRhOT6-c9Pm-21" target="H7OXvi4-zBRhOT6-c9Pm-23">
          <mxGeometry relative="1" as="geometry" />
        </mxCell>
        <mxCell id="H7OXvi4-zBRhOT6-c9Pm-21" value="j = 0" style="whiteSpace=wrap;html=1;rounded=0;" vertex="1" parent="1">
          <mxGeometry x="260" y="980" width="120" height="60" as="geometry" />
        </mxCell>
        <mxCell id="H7OXvi4-zBRhOT6-c9Pm-26" value="true" style="edgeStyle=orthogonalEdgeStyle;rounded=0;orthogonalLoop=1;jettySize=auto;html=1;" edge="1" parent="1" source="H7OXvi4-zBRhOT6-c9Pm-23" target="H7OXvi4-zBRhOT6-c9Pm-25">
          <mxGeometry relative="1" as="geometry" />
        </mxCell>
        <mxCell id="H7OXvi4-zBRhOT6-c9Pm-35" value="Fasle" style="edgeStyle=orthogonalEdgeStyle;rounded=0;orthogonalLoop=1;jettySize=auto;html=1;" edge="1" parent="1" source="H7OXvi4-zBRhOT6-c9Pm-23" target="H7OXvi4-zBRhOT6-c9Pm-34">
          <mxGeometry relative="1" as="geometry" />
        </mxCell>
        <mxCell id="H7OXvi4-zBRhOT6-c9Pm-23" value="j&amp;lt;n-i-1" style="rhombus;whiteSpace=wrap;html=1;rounded=0;" vertex="1" parent="1">
          <mxGeometry x="280" y="1100" width="80" height="80" as="geometry" />
        </mxCell>
        <mxCell id="H7OXvi4-zBRhOT6-c9Pm-28" value="True" style="edgeStyle=orthogonalEdgeStyle;rounded=0;orthogonalLoop=1;jettySize=auto;html=1;" edge="1" parent="1" source="H7OXvi4-zBRhOT6-c9Pm-25" target="H7OXvi4-zBRhOT6-c9Pm-27">
          <mxGeometry relative="1" as="geometry" />
        </mxCell>
        <mxCell id="H7OXvi4-zBRhOT6-c9Pm-31" value="False" style="edgeStyle=orthogonalEdgeStyle;rounded=0;orthogonalLoop=1;jettySize=auto;html=1;entryX=0.5;entryY=1;entryDx=0;entryDy=0;" edge="1" parent="1" source="H7OXvi4-zBRhOT6-c9Pm-25" target="H7OXvi4-zBRhOT6-c9Pm-29">
          <mxGeometry relative="1" as="geometry">
            <mxPoint x="320" y="1380" as="targetPoint" />
            <Array as="points">
              <mxPoint x="320" y="1380" />
              <mxPoint x="820" y="1380" />
            </Array>
            <mxPoint as="offset" />
          </mxGeometry>
        </mxCell>
        <mxCell id="H7OXvi4-zBRhOT6-c9Pm-25" value="numbers[j]&gt;numbers[j+1]" style="rhombus;whiteSpace=wrap;html=1;rounded=0;" vertex="1" parent="1">
          <mxGeometry x="240" y="1230" width="160" height="90" as="geometry" />
        </mxCell>
        <mxCell id="H7OXvi4-zBRhOT6-c9Pm-30" value="" style="edgeStyle=orthogonalEdgeStyle;rounded=0;orthogonalLoop=1;jettySize=auto;html=1;" edge="1" parent="1" source="H7OXvi4-zBRhOT6-c9Pm-27" target="H7OXvi4-zBRhOT6-c9Pm-29">
          <mxGeometry relative="1" as="geometry" />
        </mxCell>
        <mxCell id="H7OXvi4-zBRhOT6-c9Pm-27" value="temp = numbers[j]&lt;br&gt;&amp;nbsp; &amp;nbsp; &amp;nbsp; &amp;nbsp; numbers[j] = numbers [j+1]&amp;nbsp;&lt;br&gt;&amp;nbsp; &amp;nbsp; &amp;nbsp; &amp;nbsp; numbers[j+1] = temp" style="whiteSpace=wrap;html=1;rounded=0;" vertex="1" parent="1">
          <mxGeometry x="500" y="1227.5" width="190" height="95" as="geometry" />
        </mxCell>
        <mxCell id="H7OXvi4-zBRhOT6-c9Pm-32" style="edgeStyle=orthogonalEdgeStyle;rounded=0;orthogonalLoop=1;jettySize=auto;html=1;entryX=1;entryY=0.5;entryDx=0;entryDy=0;" edge="1" parent="1" source="H7OXvi4-zBRhOT6-c9Pm-29" target="H7OXvi4-zBRhOT6-c9Pm-23">
          <mxGeometry relative="1" as="geometry">
            <mxPoint x="820" y="1140" as="targetPoint" />
            <Array as="points">
              <mxPoint x="820" y="1140" />
              <mxPoint x="430" y="1140" />
              <mxPoint x="430" y="1152" />
              <mxPoint x="360" y="1152" />
            </Array>
          </mxGeometry>
        </mxCell>
        <mxCell id="H7OXvi4-zBRhOT6-c9Pm-29" value="j+1" style="whiteSpace=wrap;html=1;rounded=0;" vertex="1" parent="1">
          <mxGeometry x="760" y="1245" width="120" height="60" as="geometry" />
        </mxCell>
        <mxCell id="H7OXvi4-zBRhOT6-c9Pm-36" style="edgeStyle=orthogonalEdgeStyle;rounded=0;orthogonalLoop=1;jettySize=auto;html=1;" edge="1" parent="1" source="H7OXvi4-zBRhOT6-c9Pm-34" target="H7OXvi4-zBRhOT6-c9Pm-19">
          <mxGeometry relative="1" as="geometry">
            <mxPoint x="160" y="890" as="targetPoint" />
            <Array as="points">
              <mxPoint x="160" y="890" />
            </Array>
          </mxGeometry>
        </mxCell>
        <mxCell id="H7OXvi4-zBRhOT6-c9Pm-34" value="i+1" style="whiteSpace=wrap;html=1;rounded=0;" vertex="1" parent="1">
          <mxGeometry x="100" y="1110" width="120" height="60" as="geometry" />
        </mxCell>
        <mxCell id="H7OXvi4-zBRhOT6-c9Pm-41" value="" style="edgeStyle=orthogonalEdgeStyle;rounded=0;orthogonalLoop=1;jettySize=auto;html=1;" edge="1" parent="1" source="H7OXvi4-zBRhOT6-c9Pm-38" target="H7OXvi4-zBRhOT6-c9Pm-40">
          <mxGeometry relative="1" as="geometry" />
        </mxCell>
        <mxCell id="H7OXvi4-zBRhOT6-c9Pm-38" value="i =0" style="whiteSpace=wrap;html=1;rounded=0;" vertex="1" parent="1">
          <mxGeometry x="430" y="860" width="120" height="60" as="geometry" />
        </mxCell>
        <mxCell id="H7OXvi4-zBRhOT6-c9Pm-43" value="True" style="edgeStyle=orthogonalEdgeStyle;rounded=0;orthogonalLoop=1;jettySize=auto;html=1;" edge="1" parent="1" source="H7OXvi4-zBRhOT6-c9Pm-40" target="H7OXvi4-zBRhOT6-c9Pm-42">
          <mxGeometry relative="1" as="geometry" />
        </mxCell>
        <mxCell id="H7OXvi4-zBRhOT6-c9Pm-47" value="False" style="edgeStyle=orthogonalEdgeStyle;rounded=0;orthogonalLoop=1;jettySize=auto;html=1;" edge="1" parent="1" source="H7OXvi4-zBRhOT6-c9Pm-40">
          <mxGeometry relative="1" as="geometry">
            <mxPoint x="690" y="1000" as="targetPoint" />
          </mxGeometry>
        </mxCell>
        <mxCell id="H7OXvi4-zBRhOT6-c9Pm-40" value="i &amp;lt; n" style="rhombus;whiteSpace=wrap;html=1;rounded=0;" vertex="1" parent="1">
          <mxGeometry x="650" y="850" width="80" height="80" as="geometry" />
        </mxCell>
        <mxCell id="H7OXvi4-zBRhOT6-c9Pm-45" value="" style="edgeStyle=orthogonalEdgeStyle;rounded=0;orthogonalLoop=1;jettySize=auto;html=1;" edge="1" parent="1" source="H7OXvi4-zBRhOT6-c9Pm-42" target="H7OXvi4-zBRhOT6-c9Pm-44">
          <mxGeometry relative="1" as="geometry" />
        </mxCell>
        <mxCell id="H7OXvi4-zBRhOT6-c9Pm-42" value="printf numbers[i]" style="shape=parallelogram;perimeter=parallelogramPerimeter;whiteSpace=wrap;html=1;fixedSize=1;rounded=0;" vertex="1" parent="1">
          <mxGeometry x="790" y="860" width="120" height="60" as="geometry" />
        </mxCell>
        <mxCell id="H7OXvi4-zBRhOT6-c9Pm-46" style="edgeStyle=orthogonalEdgeStyle;rounded=0;orthogonalLoop=1;jettySize=auto;html=1;entryX=0.5;entryY=0;entryDx=0;entryDy=0;" edge="1" parent="1" source="H7OXvi4-zBRhOT6-c9Pm-44" target="H7OXvi4-zBRhOT6-c9Pm-40">
          <mxGeometry relative="1" as="geometry">
            <mxPoint x="1010" y="810" as="targetPoint" />
            <Array as="points">
              <mxPoint x="1010" y="800" />
              <mxPoint x="690" y="800" />
            </Array>
          </mxGeometry>
        </mxCell>
        <mxCell id="H7OXvi4-zBRhOT6-c9Pm-44" value="i + 1" style="whiteSpace=wrap;html=1;rounded=0;" vertex="1" parent="1">
          <mxGeometry x="950" y="860" width="120" height="60" as="geometry" />
        </mxCell>
        <mxCell id="H7OXvi4-zBRhOT6-c9Pm-48" value="End" style="ellipse;whiteSpace=wrap;html=1;" vertex="1" parent="1">
          <mxGeometry x="630" y="1000" width="120" height="80" as="geometry" />
        </mxCell>
      </root>
    </mxGraphModel>
  </diagram>
</mxfile>
